# xmcd
#
# Track frame offsets:
#	150
#	15711
#	34267
#	50756
#	68170
#	83491
#	98407
#	116820
#	131246
#	150845
#	164656
#
# Disc length: 2372 seconds
#
# Revision: 1
# Processed by: cddbd v1.5.2PL0 Copyright (c) Steve Scherf et al.
# Submitted via: audiograbber 1.83.01
#
DISCID=8909420b
DTITLE=Various Artist - Country Discovery Records - Hot Country Compilation Se
DTITLE=ptember 2015
DYEAR=2015
DGENRE=Country
TTITLE0=Tim Atwood - Don't The Girls All Get Prettier At Closing Time
TTITLE1=Terry Robbins - Long Live The Fiddle And The Steel
TTITLE2=Terry Robbins - Gettin'Taller
TTITLE3=Terry Robbins - I Love You More Than Bacon
TTITLE4=Regina Ann - The Glitter And The Glow
TTITLE5=Tim Atwood and Jeannie Seely - Tim Atwood and Jeannie SeelyAll I Ever Need 
TTITLE5=Is You
TTITLE6=Scott Sharp - Angel Wings
TTITLE7=Rebeka Rain - All A Game
TTITLE8=Jackie Gilbert - Light At The End Of The Tunnel
TTITLE9=Ray Segwinn - Della And The Dealer
TTITLE10=Mike Headrick - Springtime In Austin
EXTD=
EXTT0=
EXTT1=
EXTT2=
EXTT3=
EXTT4=
EXTT5=
EXTT6=
EXTT7=
EXTT8=
EXTT9=
EXTT10=
PLAYORDER=
